<svg xmlns="http://www.w3.org/2000/svg" viewBox="0 0 445 41" class="wordmark">
  <path fill-opacity=".95" d="M10.43 26.65V41H0V0h17.56C27.79 0 33.3 5.06 33.3 13.52c0 5.03-2.53 9.64-7.02 11.6L34.5 41H22.8l-7.05-14.35h-5.31zm0-18.78v11.65h6.1c3.84 0 6.12-2.24 6.12-5.8 0-3.5-2.42-5.85-6.14-5.85h-6.08zm102.32 24.72V41h-28.1V0h28.1v8.41H95.08v8.15h16.62v7.68H95.08v8.35h17.67zM164.78 0h17.76c8.8 0 14.78 5.71 14.78 14.52 0 8.75-6.28 14.46-15.4 14.46h-6.71V41h-10.43V0zm10.43 7.98v13.16h4.52c4.43 0 7.04-2.3 7.04-6.6 0-4.25-2.6-6.56-6.99-6.56h-4.57zM275.49 32.6V41h-27.4V0h10.44v32.59h16.96zm77.89 8.4l-2.59-9h-13.41l-2.61 9h-10.63l13.78-41h12.76l13.78 41h-11.08zm-9.4-32.3l-4.58 15.8h9.34L344.2 8.7h-.23zM430.8 41h-10.43V26.9L406.26 0h11.2l8.15 17.05h.2L433.93 0h11l-14.12 26.9V41z"></path>
</svg>
